<svg id="behance_logo" xmlns="http://www.w3.org/2000/svg" viewBox="0 0 48.667 48.667">
  <defs>
    <style>
      .cls-1 {
        fill: #fff;
      }

      .cls-2 {
        fill: #1e1e1e;
      }
    </style>
  </defs>
  <rect id="Rectangle_7" data-name="Rectangle 7" class="cls-1" width="48.667" height="48.667" transform="translate(0 0)"/>
  <g id="behance_logo-2" data-name="behance logo" transform="translate(7.604 13.688)">
    <path id="Path_5" data-name="Path 5" class="cls-2" d="M17.032,25.4A3.608,3.608,0,0,0,20.2,21.442c0-3.72-2.595-5.536-5.883-5.536H3.5V36.7H14.322s6.6.208,6.6-6.137C20.925,30.559,21.213,25.4,17.032,25.4ZM8.27,19.6h6.051s1.471,0,1.471,2.162-.866,2.477-1.846,2.477H8.269V19.6ZM14.015,33c-.16,0-.3,0-.387,0H8.27V27.446h6.052s2.192-.029,2.192,2.854C16.513,32.733,14.876,32.983,14.015,33Z" transform="translate(-3.503 -15.906)"/>
    <path id="Path_6" data-name="Path 6" class="cls-2" d="M38.527,23.746c-8,0-7.988,7.988-7.988,7.988s-.548,7.947,7.988,7.947c0,0,7.115.406,7.115-5.529H41.982s.121,2.236-3.334,2.236A3.382,3.382,0,0,1,34.99,32.77H45.763S46.942,23.746,38.527,23.746ZM34.949,30a3.717,3.717,0,0,1,3.658-3.2,3.093,3.093,0,0,1,3.17,3.2Z" transform="translate(-12.296 -18.456)"/>
    <rect id="Rectangle_6" data-name="Rectangle 6" class="cls-2" width="8.576" height="2.56" transform="translate(21.759 1.225)"/>
  </g>
</svg>
