<svg xmlns="http://www.w3.org/2000/svg" viewBox="0 0 245.17 244.94"><title>Asset 1</title><g id="Layer_2" data-name="Layer 2"><g id="Layer_1-2" data-name="Layer 1"><path d="M101,91.33H49L68.42,125,52.1,153.3,0,63.06H150L91.35,164.49h0a179.22,179.22,0,0,1-65.59,65.58L0,244.94l31.86-40.7A341.15,341.15,0,0,0,58.63,164.6Z"/><path d="M144.19,153.61h52l-19.45-33.7,16.32-28.27,52.1,90.24H95.22l58.6-101.43h0a179.22,179.22,0,0,1,65.59-65.58L245.17,0,213.31,40.7a339.81,339.81,0,0,0-26.76,39.64Z"/></g></g></svg>