<svg id="Group_4" data-name="Group 4" xmlns="http://www.w3.org/2000/svg" viewBox="0 0 319.377 319.077">
  <defs>
    <style>
      .cls-1 {
        fill: #fff;
      }
    </style>
  </defs>
  <path id="Path_1" data-name="Path 1" class="cls-1" d="M131.544,99.887H63.792l25.337,43.887-21.26,36.84L0,63.06H195.336L119,195.19h0A233.5,233.5,0,0,1,33.544,280.62L0,299.99l41.5-53.019a442.659,442.659,0,0,0,34.86-51.638Z" transform="translate(0 19.087)"/>
  <path id="Path_2" data-name="Path 2" class="cls-1" d="M159.012,200.1h67.752l-25.337-43.887,21.26-36.827,67.869,117.553H95.22l76.337-132.13h0a233.5,233.5,0,0,1,85.456-85.429L290.556,0l-41.5,53.019a442.673,442.673,0,0,0-34.86,51.638Z" transform="translate(28.821)"/>
</svg>
